<svg width="60" height="60" viewBox="0 0 60 60" fill="none" xmlns="http://www.w3.org/2000/svg">
<g id="location 1" clip-path="url(#clip0_1367_4169)">
<g id="Group">
<path id="_x36_" d="M23.3972 55.185C23.3972 55.7025 22.9861 56.1267 22.4686 56.1267C21.9511 56.1267 21.5269 55.7025 21.5269 55.185V43.3913C21.5269 42.5958 21.8714 41.8791 22.4287 41.362C22.9729 40.8581 23.7028 40.553 24.5119 40.553H35.4825C36.2915 40.553 37.0345 40.8577 37.5647 41.362C38.1215 41.8795 38.4675 42.5958 38.4675 43.3913V55.185C38.4675 55.7025 38.0559 56.1267 37.5384 56.1267C37.0209 56.1267 36.5967 55.7025 36.5967 55.185V43.3913C36.5967 43.1395 36.4903 42.9005 36.3047 42.7284C36.0928 42.5428 35.8139 42.4233 35.4825 42.4233H30.9319V55.1855C30.9319 55.703 30.5212 56.1272 30.0037 56.1272C29.4867 56.1272 29.062 55.703 29.062 55.1855V42.4228H24.5119C24.1936 42.4228 23.9147 42.5428 23.7028 42.728C23.5172 42.9 23.3976 43.1391 23.3976 43.3908L23.3972 55.185Z" fill="white"/>
<path id="_x35_" d="M20.7577 27.9769H26.8861C27.4036 27.9769 27.8147 28.3884 27.8147 28.9055V34.6101C27.8147 35.1276 27.4036 35.5378 26.8861 35.5378H20.7577C20.2402 35.5378 19.8291 35.1272 19.8291 34.6101V28.9055C19.8286 28.3884 20.2402 27.9769 20.7577 27.9769ZM20.7577 16.6345H26.8861C27.4036 16.6345 27.8147 17.0461 27.8147 17.5631V23.2673C27.8147 23.7848 27.4036 24.1959 26.8861 24.1959H20.7577C20.2402 24.1959 19.8291 23.7844 19.8291 23.2673V17.5636C19.8286 17.0461 20.2402 16.6345 20.7577 16.6345ZM25.9444 18.5058H21.6994V22.3256H25.9444V18.5058ZM36.1852 22.3256C36.7027 22.3256 37.1133 22.7503 37.1133 23.2678C37.1133 23.7853 36.7022 24.1964 36.1852 24.1964H33.121C32.6035 24.1964 32.1788 23.7848 32.1788 23.2678V17.5636C32.1788 17.0461 32.603 16.635 33.121 16.635C33.6385 16.635 34.0496 17.0466 34.0496 17.5636V22.3256H36.1852ZM33.121 27.9769H39.2363C39.7538 27.9769 40.178 28.3884 40.178 28.9055V34.6101C40.178 35.1276 39.7538 35.5378 39.2363 35.5378H33.121C32.6035 35.5378 32.1788 35.1272 32.1788 34.6101V28.9055C32.1788 28.3884 32.6035 27.9769 33.121 27.9769ZM38.3082 29.8476H34.05V33.668H38.3082V29.8476ZM25.9444 29.8476H21.6994V33.668H25.9444V29.8476Z" fill="white"/>
<path id="_x34_" d="M45.7628 28.7334C45.4979 29.1712 44.9279 29.3302 44.4896 29.0648C44.3434 28.972 44.2243 28.853 44.1446 28.7203L36.1056 15.0961C35.694 14.393 35.3495 13.4911 35.1376 12.6952C34.9248 11.8725 34.8188 11.0241 34.8188 10.148C34.8188 7.34859 35.9467 4.81547 37.7903 2.97094C39.6212 1.14094 42.1548 0 44.9673 0C47.7662 0 50.2998 1.14094 52.1438 2.97141C53.9743 4.81594 55.1157 7.34906 55.1157 10.1484C55.1157 11.0241 54.9962 11.873 54.7843 12.6956C54.5715 13.545 54.2396 14.3405 53.829 15.0834L45.7628 28.7334ZM44.9673 26.4248L52.2099 14.1539C52.5418 13.5572 52.8071 12.907 52.9796 12.2306C53.1517 11.5669 53.2445 10.8773 53.2445 10.148C53.2445 7.86609 52.3168 5.79703 50.8173 4.29797C49.3182 2.79937 47.2487 1.87031 44.9673 1.87031C42.6723 1.87031 40.6028 2.79891 39.1042 4.29797C37.6178 5.79703 36.6896 7.86609 36.6896 10.148C36.6896 10.8778 36.782 11.5669 36.9418 12.2306C37.1138 12.8934 37.3792 13.5305 37.6974 14.1272L44.9673 26.4248Z" fill="white"/>
<path id="_x33_" d="M44.9674 4.73584C46.4533 4.73584 47.8061 5.34662 48.7872 6.32771C49.7692 7.29615 50.3795 8.64896 50.3795 10.148C50.3795 11.6466 49.7688 13.0004 48.7872 13.9819C47.8056 14.9504 46.4533 15.5602 44.9674 15.5602C43.4683 15.5602 42.115 14.9504 41.1335 13.9819C40.1519 13.0004 39.5552 11.6471 39.5552 10.148C39.5552 8.64896 40.1519 7.29615 41.1335 6.32771C42.115 5.34615 43.4678 4.73584 44.9674 4.73584ZM47.4611 7.64115C46.8241 7.00459 45.9358 6.60662 44.9674 6.60662C43.9858 6.60662 43.0966 7.00459 42.46 7.64115C41.823 8.29131 41.4255 9.16646 41.4255 10.1485C41.4255 11.1301 41.823 12.0188 42.46 12.6558C43.0961 13.2924 43.9858 13.6904 44.9674 13.6904C45.9358 13.6904 46.8241 13.2924 47.4611 12.6558C48.1108 12.0193 48.5088 11.1301 48.5088 10.1485C48.5088 9.16646 48.1108 8.29131 47.4611 7.64115Z" fill="white"/>
<path id="_x32_" d="M49.2912 45.5671C48.7737 45.5671 48.3635 45.1428 48.3635 44.6253C48.3635 44.1078 48.7741 43.6963 49.2912 43.6963H52.6873C53.8549 43.6963 54.8899 44.3732 55.3408 45.4475L59.7316 56.1397C59.9173 56.5907 59.9833 57.0421 59.9304 57.493C59.8376 58.4085 59.2268 59.2569 58.4177 59.6816C58.0066 59.8939 57.5557 60.0004 57.0785 60.0004H2.92897C2.45131 60.0004 2.00038 59.8939 1.58928 59.6816C0.766627 59.2569 0.169908 58.4085 0.0639704 57.493C0.0241266 57.0421 0.0902204 56.5907 0.26272 56.1397L4.6671 45.4475C5.11803 44.3732 6.15256 43.6963 7.32022 43.6963H10.6896C11.2071 43.6963 11.6182 44.1083 11.6182 44.6253C11.6182 45.1424 11.2071 45.5671 10.6896 45.5671H7.32022C6.90913 45.5671 6.55053 45.7658 6.39163 46.1638L2.00085 56.8555C1.93428 57.0022 1.90803 57.1475 1.92116 57.2938C1.961 57.5989 2.17335 57.8774 2.43866 58.0236C2.58444 58.0902 2.74335 58.13 2.92944 58.13H57.0794C57.2651 58.13 57.424 58.0902 57.5571 58.0236C57.836 57.8774 58.0479 57.5994 58.0746 57.2938C58.0877 57.1475 58.0746 57.0022 58.008 56.8555L53.6173 46.1638C53.4579 45.7654 53.0998 45.5671 52.6887 45.5671H49.2912Z" fill="white"/>
<path id="_x31_" d="M44.0255 32.7526C44.0255 32.2351 44.4498 31.8104 44.9673 31.8104C45.4848 31.8104 45.8959 32.2351 45.8959 32.7526V55.1846C45.8959 55.7021 45.4843 56.1264 44.9673 56.1264H15.0399C14.5224 56.1264 14.1113 55.7021 14.1113 55.1846V14.1812C14.1113 13.3853 14.4563 12.6685 15.0137 12.1515C15.5443 11.6471 16.2873 11.3289 17.0963 11.3289H31.8605C32.378 11.3289 32.7891 11.7531 32.7891 12.271C32.7891 12.7885 32.3776 13.2128 31.8605 13.2128H17.0963C16.7645 13.2128 16.486 13.3192 16.2741 13.5179C16.0885 13.69 15.9821 13.929 15.9821 14.1812V54.2556H44.026L44.0255 32.7526Z" fill="white"/>
</g>
</g>
<defs>
<clipPath id="clip0_1367_4169">
<rect width="60" height="60" fill="white"/>
</clipPath>
</defs>
</svg>
