<svg width="60" height="60" viewBox="0 0 60 60" fill="none" xmlns="http://www.w3.org/2000/svg">
<g id="phone-call 1" clip-path="url(#clip0_1367_4201)">
<g id="Group">
<g id="Group_2">
<path id="Vector" d="M47.4187 37.1678C46.1904 35.8888 44.7088 35.205 43.1385 35.205C41.5809 35.205 40.0866 35.8761 38.8076 37.1551L34.806 41.1441C34.4767 40.9668 34.1475 40.8022 33.8309 40.6376C33.375 40.4096 32.9445 40.1943 32.5772 39.9664C28.8288 37.5857 25.4224 34.4832 22.1552 30.4688C20.5723 28.468 19.5086 26.7838 18.7361 25.0742C19.7745 24.1245 20.7369 23.1367 21.674 22.187C22.0286 21.8324 22.3832 21.4652 22.7377 21.1106C25.3971 18.4513 25.3971 15.0068 22.7377 12.3475L19.2806 8.8904C18.8881 8.49783 18.4828 8.0926 18.1029 7.68738C17.3431 6.90224 16.5453 6.09178 15.7222 5.33198C14.4939 4.11629 13.0249 3.47046 11.48 3.47046C9.93503 3.47046 8.44075 4.11629 7.17441 5.33198C7.16175 5.34464 7.16175 5.34464 7.14909 5.35731L2.84353 9.70086C1.22261 11.3218 0.29818 13.2973 0.0955651 15.5893C-0.208357 19.2871 0.880697 22.7315 1.71648 24.9856C3.76795 30.5195 6.8325 35.6482 11.404 41.1441C16.9506 47.7671 23.6242 52.9971 31.2476 56.6821C34.1601 58.0624 38.0478 59.696 42.3914 59.9746C42.6573 59.9873 42.9359 59.9999 43.1892 59.9999C46.1144 59.9999 48.5711 58.9489 50.4959 56.8594C50.5086 56.8341 50.5339 56.8214 50.5466 56.7961C51.2051 55.9983 51.9649 55.2765 52.7627 54.504C53.3072 53.9848 53.8644 53.4403 54.4089 52.8704C55.6626 51.5661 56.3211 50.0465 56.3211 48.4889C56.3211 46.9186 55.6499 45.4117 54.3709 44.1453L47.4187 37.1678ZM51.9522 50.5024C51.9396 50.5024 51.9396 50.515 51.9522 50.5024C51.4584 51.0342 50.9518 51.5154 50.4073 52.0473C49.5842 52.8324 48.7484 53.6556 47.9633 54.58C46.6843 55.9476 45.1773 56.5935 43.2018 56.5935C43.0119 56.5935 42.8092 56.5935 42.6193 56.5808C38.8583 56.3402 35.3632 54.8712 32.7418 53.6176C25.5743 50.1478 19.2806 45.2217 14.0506 38.9787C9.73242 33.774 6.84516 28.9619 4.93299 23.7952C3.75529 20.642 3.32473 18.1853 3.51469 15.8679C3.64132 14.3863 4.21117 13.158 5.26224 12.1069L9.58046 7.78868C10.201 7.20616 10.8595 6.88958 11.5053 6.88958C12.3031 6.88958 12.9489 7.37079 13.3542 7.77602C13.3668 7.78868 13.3795 7.80135 13.3921 7.81401C14.1646 8.53582 14.8991 9.28297 15.6716 10.0808C16.0641 10.486 16.4694 10.8912 16.8746 11.3091L20.3317 14.7662C21.674 16.1085 21.674 17.3496 20.3317 18.6919C19.9645 19.0591 19.6099 19.4264 19.2426 19.7809C18.1789 20.87 17.1658 21.8831 16.0641 22.8708C16.0388 22.8961 16.0135 22.9088 16.0008 22.9341C14.9118 24.0232 15.1144 25.0869 15.3423 25.8087C15.355 25.8467 15.3676 25.8847 15.3803 25.9227C16.2794 28.1008 17.5457 30.1523 19.4706 32.5963L19.4832 32.609C22.9783 36.9145 26.6634 40.2703 30.7284 42.841C31.2476 43.1702 31.7794 43.4362 32.286 43.6895C32.7418 43.9174 33.1724 44.1327 33.5396 44.3606C33.5903 44.3859 33.6409 44.4239 33.6916 44.4493C34.1222 44.6645 34.5274 44.7658 34.9453 44.7658C35.9963 44.7658 36.6548 44.1073 36.8701 43.8921L41.201 39.5612C41.6315 39.1306 42.3154 38.6114 43.1132 38.6114C43.8983 38.6114 44.5441 39.1053 44.9367 39.5359C44.9494 39.5485 44.9494 39.5485 44.962 39.5612L51.9396 46.5387C53.2439 47.8304 53.2439 49.16 51.9522 50.5024Z" fill="white"/>
<path id="Vector_2" d="M32.4253 14.2725C35.7431 14.8296 38.757 16.3999 41.163 18.806C43.5691 21.212 45.1267 24.2259 45.6965 27.5437C45.8358 28.3795 46.5576 28.962 47.3807 28.962C47.482 28.962 47.5707 28.9494 47.672 28.9367C48.6091 28.7847 49.2296 27.8983 49.0776 26.9612C48.3938 22.9469 46.4943 19.2872 43.5944 16.3872C40.6945 13.4873 37.0347 11.5878 33.0204 10.904C32.0833 10.752 31.2096 11.3725 31.0449 12.297C30.8803 13.2214 31.4882 14.1205 32.4253 14.2725Z" fill="white"/>
<path id="Vector_3" d="M59.9303 26.4673C58.8033 19.857 55.6881 13.8418 50.9013 9.05507C46.1145 4.26831 40.0994 1.15311 33.4891 0.0260632C32.5647 -0.138561 31.6909 0.494609 31.5263 1.41904C31.3743 2.35613 31.9948 3.22991 32.9319 3.39453C38.8331 4.39494 44.215 7.19355 48.4953 11.4611C52.7755 15.7414 55.5614 21.1233 56.5619 27.0245C56.7012 27.8602 57.423 28.4428 58.2461 28.4428C58.3474 28.4428 58.436 28.4301 58.5373 28.4174C59.4618 28.2781 60.0949 27.3917 59.9303 26.4673Z" fill="white"/>
</g>
</g>
</g>
<defs>
<clipPath id="clip0_1367_4201">
<rect width="60" height="60" fill="white"/>
</clipPath>
</defs>
</svg>
