<svg width="40" height="40" viewBox="0 0 40 40" fill="none" xmlns="http://www.w3.org/2000/svg">
<g id="apple-logo 1" clip-path="url(#clip0_1367_2165)">
<g id="Group">
<g id="Group_2">
<path id="Vector" d="M27.697 0C27.7901 0 27.8832 0 27.9816 0C28.2099 2.82088 27.1332 4.92864 25.8246 6.45501C24.5407 7.97084 22.7824 9.441 19.9387 9.21793C19.749 6.43745 20.8275 4.48601 22.1343 2.96316C23.3463 1.54393 25.5682 0.281035 27.697 0Z" fill="white"/>
<path id="Vector_2" d="M36.3059 29.3619C36.3059 29.39 36.3059 29.4146 36.3059 29.441C35.5067 31.8614 34.3667 33.9358 32.9756 35.8609C31.7057 37.6085 30.1494 39.9605 27.3707 39.9605C24.9696 39.9605 23.3748 38.4165 20.9139 38.3744C18.3109 38.3322 16.8793 39.6654 14.4993 40.0009C14.2271 40.0009 13.9548 40.0009 13.6878 40.0009C11.9402 39.7479 10.5297 38.3638 9.50219 37.1167C6.47228 33.4317 4.13092 28.6716 3.69531 22.5802C3.69531 21.983 3.69531 21.3876 3.69531 20.7904C3.87974 16.4308 5.99804 12.8863 8.81365 11.1685C10.2996 10.2551 12.3424 9.47699 14.617 9.82477C15.5919 9.97583 16.5878 10.3096 17.4607 10.6398C18.288 10.9577 19.3226 11.5215 20.3027 11.4917C20.9666 11.4723 21.6271 11.1263 22.2963 10.8822C24.2565 10.1743 26.1781 9.36282 28.7109 9.74397C31.7549 10.2042 33.9153 11.5566 35.2502 13.6433C32.6752 15.2821 30.6395 17.7517 30.9873 21.969C31.2964 25.7998 33.5236 28.0411 36.3059 29.3619Z" fill="white"/>
</g>
</g>
</g>
<defs>
<clipPath id="clip0_1367_2165">
<rect width="40" height="40" fill="white"/>
</clipPath>
</defs>
</svg>
