<svg width="40" height="40" viewBox="0 0 40 40" fill="none" xmlns="http://www.w3.org/2000/svg">
<g id="google-play 1">
<g id="Group">
<path id="Vector" d="M2.76559 0.61875C2.31332 1.09742 2.0459 1.84063 2.0459 2.80359V37.1975C2.0459 38.1613 2.3134 38.9037 2.76559 39.3823L2.88066 39.4945L22.1475 20.2278V20.0006V19.7733L2.88066 0.505859L2.76559 0.61875Z" fill="url(#paint0_linear_1367_2155)"/>
<path id="Vector_2" d="M28.5693 26.6525L22.1475 20.2275V20.0003V19.773L28.5708 13.3496L28.7156 13.4322L36.3246 17.7557C38.4982 18.9905 38.4982 21.0109 36.3246 22.2465L28.7156 26.57L28.5693 26.6525Z" fill="url(#paint1_linear_1367_2155)"/>
<path id="Vector_3" d="M28.7157 26.5689L22.1475 20.0001L2.76562 39.3818C3.48227 40.1402 4.66477 40.2341 5.99742 39.4772L28.7157 26.5689Z" fill="white"/>
<path id="Vector_4" d="M28.7157 13.4311L5.99742 0.522721C4.66477 -0.234154 3.48227 -0.140248 2.76562 0.61819L22.1475 20.0001L28.7157 13.4311Z" fill="url(#paint2_linear_1367_2155)"/>
</g>
</g>
<defs>
<linearGradient id="paint0_linear_1367_2155" x1="20.4389" y1="2.44096" x2="-5.66032" y2="28.5401" gradientUnits="userSpaceOnUse">
<stop stop-color="#00A0FF"/>
<stop offset="0.0066" stop-color="#00A2FF"/>
<stop offset="0.2601" stop-color="#00BEFF"/>
<stop offset="0.5122" stop-color="#00D2FF"/>
<stop offset="0.7604" stop-color="#00DFFF"/>
<stop offset="1" stop-color="#00E3FF"/>
</linearGradient>
<linearGradient id="paint1_linear_1367_2155" x1="39.1546" y1="20.001" x2="1.52472" y2="20.001" gradientUnits="userSpaceOnUse">
<stop stop-color="#FFE000"/>
<stop offset="0.4087" stop-color="#FFBD00"/>
<stop offset="0.7754" stop-color="#FFA600"/>
<stop offset="1" stop-color="#FF9C00"/>
</linearGradient>
<linearGradient id="paint2_linear_1367_2155" x1="-2.11454" y1="-10.8306" x2="13.6897" y2="4.97374" gradientUnits="userSpaceOnUse">
<stop stop-color="#00A06F"/>
<stop offset="0.0685" stop-color="#00A86E"/>
<stop offset="0.4762" stop-color="#00CF6E"/>
<stop offset="0.8009" stop-color="#00E76D"/>
<stop offset="1" stop-color="#00EF6D"/>
</linearGradient>
</defs>
</svg>
